<svg width="32" height="20" viewBox="0 0 32 20" fill="none" xmlns="http://www.w3.org/2000/svg">
<path fill-rule="evenodd" clip-rule="evenodd" d="M7.14868 0.988643C6.95601 1.07837 6.7804 1.245 6.68056 1.43287C6.57739 1.62695 6.57739 2.05306 6.68056 2.24714C6.78161 2.43731 6.95803 2.60333 7.1547 2.69338L7.32296 2.7704L8.82145 2.76122C10.2853 2.75223 10.3229 2.7504 10.4479 2.68314C10.6217 2.58964 10.7999 2.40477 10.8874 2.2272C10.9861 2.02698 10.988 1.66327 10.8916 1.456C10.804 1.26775 10.6153 1.08212 10.4159 0.988099L10.2559 0.912643H8.78395H7.31195L7.14868 0.988643ZM13.6047 1.55376C13.1648 1.64224 12.8376 2.07789 12.8725 2.52861C12.8994 2.87696 13.1052 3.17168 13.4239 3.31837L13.5839 3.392L17.264 3.408L20.944 3.424L21.0981 3.50276C21.2864 3.59892 21.4862 3.80989 21.5788 4.01037L21.6479 4.16L21.6568 8.46832L21.6657 12.7766L21.5288 12.8479C20.9454 13.1519 20.4306 13.6839 20.1198 14.304C19.9937 14.5556 19.8576 14.9632 19.8234 15.192L19.8007 15.344H19.0043H18.208V15.2516C18.208 15.2007 18.1713 15.0316 18.1264 14.8756C17.7988 13.7355 16.9206 12.8769 15.7495 12.552C15.5429 12.4947 15.4151 12.4837 14.9439 12.4829C14.3213 12.4818 14.0752 12.5274 13.6211 12.7281C12.6056 13.1766 11.8684 14.0873 11.6762 15.1307L11.6371 15.3427L8.81854 15.3513C6.12625 15.3596 5.99493 15.3627 5.88795 15.4204C5.66417 15.5411 5.53825 15.6675 5.43691 15.8733C5.34312 16.0638 5.33675 16.0976 5.35029 16.3312C5.36686 16.6177 5.4508 16.7986 5.64715 16.971C5.90936 17.2012 5.63838 17.183 8.95163 17.1926L11.9353 17.2013L12.0041 17.3366C12.4144 18.1436 13.1921 18.7439 14.1759 19.0132C14.5007 19.1021 15.3823 19.0943 15.7315 18.9994C16.3886 18.8209 16.8026 18.5801 17.2799 18.0988C17.5254 17.8513 17.6591 17.6849 17.7759 17.4814L17.9359 17.2028L19.0154 17.2014L20.0949 17.2L20.1727 17.3535C20.2874 17.5799 20.6034 17.9908 20.8191 18.1939C21.2249 18.5762 21.7237 18.8456 22.336 19.0132C22.497 19.0573 22.6667 19.0702 23.0879 19.0706C23.5812 19.0709 23.6608 19.063 23.9416 18.9849C24.5313 18.8209 25.0177 18.5401 25.4349 18.1229C25.6532 17.9047 25.9588 17.4905 26.0496 17.2899L26.0885 17.2037L27.4362 17.1928L28.7839 17.1818L29.0331 17.0949C30.0434 16.7422 30.7316 16.0087 30.9944 15.0043C31.0478 14.8005 31.0529 14.5373 31.064 11.488C31.0761 8.14282 31.0639 7.64493 30.9576 7.12887C30.624 5.50999 29.4942 4.21572 27.9485 3.68196C27.2538 3.44208 26.8762 3.40807 24.907 3.40804L23.366 3.408L23.2681 3.19895C22.9061 2.42528 22.214 1.84868 21.36 1.60925L21.104 1.53747L17.424 1.53162C15.3999 1.52839 13.6813 1.53834 13.6047 1.55376ZM23.5199 8.8792C23.5199 11.7212 23.5283 12.4684 23.5599 12.4774C23.582 12.4837 23.723 12.5176 23.8733 12.5527C24.8322 12.7768 25.6879 13.4783 26.1091 14.3856C26.2216 14.628 26.3679 15.1186 26.3679 15.2536V15.348L27.416 15.338L28.4639 15.328L28.624 15.2428C28.817 15.1399 28.9922 14.9627 29.0932 14.768L29.1679 14.624L29.1765 11.832L29.185 9.04L27.6565 9.03968L26.128 9.03936L25.9679 8.96352C25.3974 8.693 25.2502 7.95197 25.6738 7.48304C25.736 7.41421 25.8564 7.32237 25.9414 7.27895L26.096 7.2L27.5599 7.19108C28.5097 7.18528 29.0239 7.17088 29.0239 7.15012C29.0239 7.07383 28.8453 6.70282 28.7146 6.50765C28.5433 6.25191 28.179 5.89207 27.9309 5.73351C27.7082 5.5912 27.4466 5.4737 27.152 5.38362C26.9374 5.31802 26.8564 5.31469 25.2239 5.30378L23.5199 5.29242V8.8792ZM4.73576 5.96589C4.35025 6.08317 4.09032 6.44487 4.09032 6.864C4.09032 7.22717 4.27659 7.53319 4.59739 7.69706L4.75195 7.776L7.47736 7.78451C10.1652 7.79293 10.2052 7.79213 10.3797 7.72685C10.6205 7.63677 10.859 7.37802 10.9316 7.12807C11.0621 6.67936 10.8471 6.21188 10.4185 6.01236L10.2559 5.93664L7.53595 5.93907C6.03995 5.94042 4.77985 5.95248 4.73576 5.96589ZM1.50395 11.0262C1.22408 11.1533 1.01784 11.4134 0.963373 11.7082C0.884621 12.1342 1.07777 12.5205 1.47195 12.7252L1.61595 12.8H5.64795H9.67995L9.81509 12.7278C10.4902 12.3671 10.5157 11.4485 9.86126 11.0638L9.71195 10.976L5.67995 10.9685C1.67998 10.9609 1.6468 10.9614 1.50395 11.0262ZM14.5973 14.3691C14.1443 14.4674 13.7456 14.8268 13.5692 15.296C13.4679 15.5652 13.4679 15.9868 13.5692 16.256C13.9487 17.2648 15.1932 17.5465 15.9458 16.7939C16.7483 15.9914 16.3636 14.6292 15.2612 14.3693C15.0137 14.311 14.8651 14.3109 14.5973 14.3691ZM22.7839 14.3636C22.0565 14.5216 21.5664 15.2331 21.6678 15.984C21.7283 16.4326 22.0635 16.8896 22.4745 17.084C23.2893 17.4695 24.2657 17.0069 24.4949 16.1269C24.6224 15.6374 24.4816 15.1285 24.118 14.765C23.9069 14.5539 23.6959 14.4341 23.4212 14.3693C23.1803 14.3125 23.0254 14.3112 22.7839 14.3636Z" fill="#00DBBC"/>
</svg>
